<?xml version="1.0" encoding="UTF-8"?>
<!DOCTYPE svg PUBLIC "-//W3C//DTD SVG 1.1//EN" "http://www.w3.org/Graphics/SVG/1.1/DTD/svg11.dtd">
<!-- Creator: CorelDRAW 2020 (64-Bit Versión de evaluación) -->
<svg xmlns="http://www.w3.org/2000/svg" xml:space="preserve" width="118.261mm" height="25.8999mm" version="1.1" style="shape-rendering:geometricPrecision; text-rendering:geometricPrecision; image-rendering:optimizeQuality; fill-rule:evenodd; clip-rule:evenodd"
viewBox="0 0 5841.5 1279.32"
 xmlns:xlink="http://www.w3.org/1999/xlink"
 xmlns:xodm="http://www.corel.com/coreldraw/odm/2003">
 <defs>
  <style type="text/css">
   <![CDATA[
    .fil1 {fill:#01A6B2}
    .fil0 {fill:#021E3F}
   ]]>
  </style>
 </defs>
 <g id="Capa_x0020_1">
  <metadata id="CorelCorpID_0Corel-Layer"/>
  <path class="fil0" d="M927.84 683.47c5.1,13.54 1.63,122.76 1.77,147.54 0.32,54.4 36.71,52.55 58.78,36.95 8.26,-5.84 11.34,-13.38 16.49,-23.84 1.1,-36.09 0.42,-73.34 0.4,-109.56 -0.03,-70.42 -18.83,-51.26 106.04,-120.16 14.5,-8 62.14,-36.3 73.5,-38.69 0.43,29.61 0.17,59.92 -0,89.57 -0.55,92.11 -1.41,97.56 65.05,60.56 21.81,-12.15 24.51,-20.36 24.2,-51.49 -0.41,-40.21 -3.89,-112.49 0.84,-149.39l144.81 -78c16.83,-9.08 63.17,-31.42 71.5,-40.04 17.93,-18.57 23.72,-57.64 6.66,-83.25 -18.03,-27.08 -102.93,-68.68 -136.11,-86.99 -64.1,-35.38 -393.14,-215.51 -437.9,-230.5 -59.75,-20.01 -102.25,12.23 -163.34,46.48l-284.73 161.09c-23.34,13.33 -49.45,34.34 -30.12,68.49 18.27,32.28 53.66,11.7 78.34,-2.1 87.95,-49.2 200.56,-116.91 285.16,-160.69 80.84,-41.82 59.52,-51.79 154.73,-2.97 127.74,65.48 272.76,144.17 399.46,215.2 14.72,8.25 26.69,10.76 27.15,30.22 -14.11,15.33 -161.34,90.65 -190.63,106.18 -65.06,34.5 -127.92,73.09 -192.58,108.59 -57.53,31.59 -48.49,22.97 -105.37,-6.45 -70.43,-36.42 -248.4,-132.61 -305.84,-146.13 9.53,-10.87 20,-15.66 11.22,-38.31 -14.41,-37.14 -75.44,-32.19 -100.04,37.2 -22.14,62.48 -3,129.85 46.73,110.44 15.73,-6.14 20.95,-16.81 23.67,-35.89 57.14,18.71 250,127.2 331.4,167.92 13.41,6.71 13.41,4.42 18.77,18.04z"/>
  <path class="fil1" d="M1004.88 844.12c-5.15,10.46 -8.23,18 -16.49,23.84 -22.07,15.6 -58.46,17.45 -58.78,-36.95 -0.14,-24.78 3.33,-133.99 -1.77,-147.54l0.7 186.36c-25.23,-9.93 -56.73,-29.76 -82,-42.61 -65.64,-33.4 -136.84,-75.02 -202.35,-105.08l-39.6 -14.44c-4.98,-2.62 -2.38,-0.74 -5.74,-4.08 55.33,-30.87 -45.8,-113.1 -88.2,3.37 -17.59,48.32 -8,125.7 46.93,106.6 21.61,-7.51 22.5,-27.75 26.26,-34.22 37.76,13.06 202.98,102.2 247.2,126.67 98.92,54.74 97.66,34.5 97.71,87.56 0.05,55.92 4.8,134.84 -0.32,187.97 -13.98,-3.85 -242.45,-136.09 -286.65,-158.54 -13.26,-6.73 -35.86,-12.65 -45.45,-20.37 8.27,-6.51 9.76,-3.1 12.81,-13.65 2.41,-8.32 0.31,-17.5 -2.77,-24 -16.17,-34.13 -71.36,-32.3 -98.68,36.82 -21.37,54.07 -7.86,130.71 46.77,110.28 17.94,-6.71 18.03,-17 23.05,-28 2.46,-5.41 0.86,-3.1 3.31,-6.03 29.47,11.91 58.79,30.73 86.34,46.24l254.21 143.17c36.32,20.65 72.23,15.61 82.19,-25.76 4.02,-16.67 2.28,-372.46 1.3,-397.61z"/>
  <path class="fil0" d="M1367.89 548.49l-0.23 86.91 68.31 -36.21 0.59 304.05c0.04,69.92 8.82,53.65 -73.67,101.26l-224.61 130.88c-18.05,10.4 -43.76,18.78 -47.76,39.69 -4.66,24.35 -6.48,69.78 22.7,65.1 10.6,-1.7 289.08,-167.17 338.01,-195.39 71.73,-41.37 61.83,-51.42 61.63,-156.61 -0.24,-134.51 2.62,-288.37 -0.16,-419.2l-144.81 79.51z"/>
  <path class="fil0" d="M390.49 404.99l-318.72 0c-34.8,-0.02 -70.79,-1.78 -71.52,37.5 -0.73,38.8 29.58,39 65.5,38.89 107.66,-0.33 220.08,2.04 326.41,-0.05 4.79,9.89 8.2,18.09 16.85,24.46 26.69,19.64 11.87,11.83 24.02,21.19 25.82,19.92 47.49,8.93 71.49,1.36 -5.11,-15.43 -15,-21.23 -20.94,-40.11 -5.29,-16.79 -5.57,-39.06 -1.43,-56.77 8.63,-36.93 28.5,-52.81 51.58,-70.41 -24.24,-32 -73.46,-30.59 -100.4,-2.94 -21.57,22.13 -24.61,14.21 -42.84,46.89z"/>
  <path class="fil1" d="M391.07 760.64c14.31,7.12 5.35,11.27 21.99,24.19 34.17,26.56 47,45.67 95.74,22.28 -9.55,-19.74 -34.61,-40.88 -21.66,-94.11 9.67,-39.77 28.23,-51.9 50.25,-68.81 -16.71,-28.63 -70.32,-31.07 -96.37,-4.3 -10.8,11.1 -5.95,5.68 -19.19,13.94 -5.83,3.65 -13.53,11.18 -17.17,16.01 -13.95,18.51 1.32,15.19 -52.73,15.08 -91.34,-0.19 -182.78,-0.16 -274.12,0.05 -18.43,0.04 -47.16,-3.54 -61.52,6.23 -11.58,7.88 -22.03,28.19 -12.65,48.01 15.14,31.98 74.36,21.21 113.33,21.34 91.35,0.33 182.76,0 274.12,0.07z"/>
  <path class="fil1" d="M391.67 984.2l-319.89 0.11c-36.54,0.08 -70.51,-2.25 -71.46,36.53 -0.95,38.54 29.67,38.99 65.44,38.91l326.41 0.22c20,35.1 16.81,19.04 30.84,34.34 5.97,6.51 3.35,6.53 11.73,12.28 20.44,14 56.28,13.78 70.28,-5.09 -43.57,-50.57 -25.28,-118.99 13.56,-149.14 5.55,-4.31 11.58,-7.27 15.82,-12.13 -23.95,-22.9 -56.39,-30.57 -84.71,-14.62 -16.57,9.33 -46.41,35.73 -58.01,58.59z"/>
  <path class="fil0" d="M2206.33 898.75c22.46,20.22 57.4,75.04 90.93,90.66 18.26,-22.39 43.3,-39.02 57.09,-57.85 -14.07,-27.71 -59.5,-50.23 -77.01,-93.44 183.13,-135.46 139.77,-547.34 -209.2,-587.52 -103.5,-11.91 -204.74,18.42 -270.18,68.97 -296.01,228.62 -88.38,672.88 279.29,619.98 61.42,-8.83 82.01,-26.22 129.09,-40.82zm-74.79 -75.7c-28.78,-50.24 -56.16,-57.1 -70.49,-84.83 9.09,-14.94 43.83,-43.54 60.06,-54.39 28.29,24.15 58.96,64.33 83.96,83.55 68.64,-44.78 111.82,-215.45 13.44,-332.65 -69.5,-82.79 -218.76,-122.23 -339.47,-45.4 -174.67,111.19 -135.82,372.39 45.43,436.08 87.65,30.8 123.59,20.57 207.08,-2.36z"/>
  <path class="fil1" d="M4482.82 535.26l-0.76 -253.44 -84.55 -2.33c-7.03,66.88 -7.59,431.09 3.77,485.19 46.02,219.16 364.72,231.9 436.02,29.38 77.73,-220.8 -146.54,-392.68 -315.31,-286.89l-39.18 28.09zm104.68 30.01c-178.34,45.9 -119.61,331.35 72.54,284.93 67.34,-16.26 122.99,-90.14 102.84,-179.06 -16.05,-70.81 -84.74,-129.2 -175.38,-105.87z"/>
  <path class="fil0" d="M3279.2 1097.93l85.93 0.73 0.51 -220.85c54.36,72.55 247.25,95.81 329.38,-37.33 124.81,-202.29 -63.06,-433.08 -278.3,-346.88 -55.4,22.18 -101.01,65.31 -121.96,123.51 -28.41,78.92 -15.26,373.35 -15.56,480.82zm189.86 -531.75c-177.91,51.67 -111.65,330.05 74.98,282.22 66.76,-17.12 120.61,-92.97 97.54,-181.72 -17.38,-66.86 -86.76,-125.39 -172.52,-100.5z"/>
  <path class="fil1" d="M5122.28 479.65c-119.12,17.18 -209.49,122.31 -190.83,263.05 38.25,288.32 490.33,247.91 451.03,-72.36 -14.52,-118.38 -123.67,-210.38 -260.21,-190.68zm-3.7 86.82c-179.33,50.13 -110.77,338.68 80.06,282.1 170.99,-50.69 109.29,-335.02 -80.06,-282.1z"/>
  <path class="fil0" d="M2924.92 496.04l-86.82 -2.16c-5.53,139.88 39.85,359.92 -126.93,359.53 -169.47,-0.4 -117.3,-250.36 -124.77,-359.36l-84.79 -0.15c-11.54,172.3 -32.11,443.57 209.56,443.67 245.41,0.11 222.74,-265.36 213.76,-441.54z"/>
  <path class="fil0" d="M4259.84 493.41l-85.68 0.83c-5.81,130.4 42.91,357.18 -126.53,358.85 -171.08,1.68 -118.95,-241.68 -125.65,-358.78l-85.04 0.01c-14.04,176.29 -27.54,444.09 210.62,443.46 98.48,-0.26 166.91,-56.4 196.42,-128.63 24.18,-59.18 21.02,-243.28 15.86,-315.74z"/>
  <path class="fil1" d="M5582.49 704.1c-8.98,19.95 -24.94,36.49 -37.24,53.23 -15.38,20.92 -23.83,34.47 -40.58,56.03 -22.66,29.19 -63.19,79.88 -77.87,109.62l88.05 1.09c28.12,-27.58 94.04,-135.91 119.43,-157.97l115.17 157.86 92.05 -0.15c-4.67,-15.45 -141.87,-197.94 -156.23,-212.96 8.17,-21.55 89.78,-126.75 114.21,-159.94 15.13,-20.56 28.75,-35.93 38.86,-56.05l-90.33 -0.81 -113.74 149.34c-27.47,-26.15 -85.34,-112.6 -108.51,-148.6l-92.1 -0.2 110.86 157.03c14.26,17.93 27.53,33.15 37.96,52.48z"/>
  <path class="fil0" d="M3065.01 923.48l81.38 0.39 1.75 -428.51 -85.39 -1.24c-4,52.41 -6.83,396.49 2.26,429.35z"/>
  <path class="fil0" d="M3090.09 279.56c-71.24,18.92 -50.34,130.89 27.74,114.32 72.03,-15.28 50.44,-135.08 -27.74,-114.32z"/>
 </g>
</svg>
