<?xml version="1.0" encoding="UTF-8"?>
<!DOCTYPE svg PUBLIC "-//W3C//DTD SVG 1.1//EN" "http://www.w3.org/Graphics/SVG/1.1/DTD/svg11.dtd">
<!-- Creator: CorelDRAW 2020 (64-Bit Versión de evaluación) -->
<svg xmlns="http://www.w3.org/2000/svg" xml:space="preserve" width="30.6495mm" height="25.8999mm" version="1.1" style="shape-rendering:geometricPrecision; text-rendering:geometricPrecision; image-rendering:optimizeQuality; fill-rule:evenodd; clip-rule:evenodd"
viewBox="0 0 1971.47 1665.96"
 xmlns:xlink="http://www.w3.org/1999/xlink"
 xmlns:xodm="http://www.corel.com/coreldraw/odm/2003">
 <defs>
  <style type="text/css">
   <![CDATA[
    .fil2 {fill:#0077FF}
    .fil1 {fill:#01A6B2}
    .fil0 {fill:#0D7EFF}
   ]]>
  </style>
 </defs>
 <g id="Capa_x0020_1">
  <metadata id="CorelCorpID_0Corel-Layer"/>
  <path class="fil0" d="M1208.26 890.03c6.64,17.64 2.12,159.86 2.31,192.13 0.41,70.84 47.8,68.43 76.54,48.11 10.75,-7.6 14.77,-17.43 21.47,-31.04 1.43,-46.99 0.55,-95.5 0.52,-142.67 -0.05,-91.7 -24.52,-66.75 138.09,-156.47 18.89,-10.42 80.92,-47.26 95.71,-50.38 0.56,38.56 0.23,78.02 -0.01,116.64 -0.72,119.95 -1.83,127.05 84.71,78.86 28.4,-15.82 31.92,-26.51 31.51,-67.05 -0.53,-52.37 -5.07,-146.49 1.09,-194.54l188.58 -101.57c21.92,-11.83 82.26,-40.91 93.11,-52.14 23.35,-24.18 30.89,-75.06 8.68,-108.42 -23.48,-35.27 -134.04,-89.43 -177.25,-113.29 -83.47,-46.07 -511.96,-280.64 -570.24,-300.16 -77.81,-26.06 -133.15,15.93 -212.71,60.53l-370.78 209.77c-30.39,17.36 -64.39,44.72 -39.22,89.18 23.79,42.04 69.88,15.24 102.01,-2.74 114.53,-64.07 261.17,-152.25 371.34,-209.25 105.27,-54.46 77.51,-67.44 201.5,-3.87 166.34,85.27 355.19,187.74 520.19,280.24 19.17,10.75 34.75,14.01 35.35,39.35 -18.37,19.97 -210.1,118.05 -248.24,138.28 -84.72,44.92 -166.58,95.18 -250.78,141.41 -74.92,41.14 -63.14,29.91 -137.22,-8.4 -91.71,-47.43 -323.47,-172.69 -398.27,-190.3 12.41,-14.15 26.05,-20.39 14.61,-49.89 -18.76,-48.36 -98.24,-41.92 -130.27,48.44 -28.84,81.37 -3.9,169.09 60.85,143.81 20.48,-8 27.29,-21.9 30.82,-46.73 74.4,24.36 325.56,165.64 431.56,218.67 17.46,8.74 17.46,5.75 24.45,23.5z"/>
  <path class="fil1" d="M1308.59 1099.23c-6.7,13.62 -10.72,23.44 -21.47,31.04 -28.74,20.31 -76.13,22.73 -76.54,-48.11 -0.19,-32.26 4.34,-174.49 -2.31,-192.13l0.91 242.68c-32.86,-12.94 -73.88,-38.75 -106.78,-55.49 -85.47,-43.49 -178.2,-97.69 -263.5,-136.83l-51.57 -18.8c-6.49,-3.41 -3.1,-0.96 -7.47,-5.31 72.05,-40.2 -59.65,-147.28 -114.86,4.39 -22.91,62.92 -10.41,163.7 61.11,138.82 28.14,-9.78 29.3,-36.13 34.2,-44.56 49.17,17 264.32,133.08 321.9,164.95 128.82,71.29 127.18,44.93 127.24,114.02 0.07,72.82 6.25,175.6 -0.41,244.77 -18.2,-5.01 -315.72,-177.22 -373.28,-206.46 -17.26,-8.77 -46.7,-16.47 -59.19,-26.53 10.77,-8.48 12.71,-4.04 16.68,-17.78 3.13,-10.84 0.4,-22.79 -3.6,-31.25 -21.05,-44.44 -92.93,-42.07 -128.5,47.95 -27.83,70.41 -10.23,170.22 60.9,143.61 23.36,-8.74 23.48,-22.14 30.01,-36.46 3.21,-7.04 1.12,-4.04 4.32,-7.85 38.38,15.51 76.56,40.02 112.44,60.22l331.03 186.44c47.29,26.89 94.06,20.33 107.03,-33.54 5.23,-21.71 2.97,-485.03 1.7,-517.77z"/>
  <path class="fil2" d="M1781.3 714.25l-0.3 113.18 88.95 -47.15 0.77 395.95c0.05,91.06 11.48,69.87 -95.94,131.87l-292.5 170.44c-23.5,13.54 -56.98,24.46 -62.19,51.69 -6.07,31.7 -8.44,90.87 29.56,84.77 13.8,-2.21 376.44,-217.69 440.16,-254.44 93.4,-53.87 80.52,-66.97 80.26,-203.94 -0.32,-175.16 3.41,-375.52 -0.21,-545.9l-188.58 103.53z"/>
  <path class="fil2" d="M508.51 527.38l-415.04 0c-45.32,-0.03 -92.18,-2.32 -93.14,48.83 -0.95,50.53 38.52,50.79 85.29,50.65 140.19,-0.43 286.6,2.66 425.05,-0.06 6.23,12.88 10.68,23.56 21.94,31.85 34.75,25.58 15.46,15.4 31.28,27.59 33.63,25.94 61.85,11.63 93.1,1.77 -6.65,-20.09 -19.53,-27.65 -27.27,-52.23 -6.88,-21.87 -7.26,-50.86 -1.86,-73.93 11.24,-48.09 37.11,-68.77 67.17,-91.69 -31.56,-41.67 -95.67,-39.84 -130.75,-3.83 -28.08,28.82 -32.05,18.5 -55.78,61.06z"/>
  <path class="fil1" d="M509.27 990.52c18.63,9.27 6.97,14.67 28.63,31.51 44.49,34.59 61.21,59.47 124.67,29.02 -12.43,-25.7 -45.06,-53.23 -28.21,-122.55 12.59,-51.79 36.76,-67.59 65.44,-89.6 -21.76,-37.28 -91.57,-40.47 -125.5,-5.6 -14.07,14.45 -7.75,7.4 -24.99,18.16 -7.6,4.75 -17.62,14.56 -22.37,20.85 -18.16,24.1 1.72,19.78 -68.66,19.63 -118.95,-0.24 -238.01,-0.21 -356.96,0.06 -24.01,0.05 -61.42,-4.61 -80.11,8.12 -15.08,10.26 -28.69,36.72 -16.48,62.52 19.72,41.65 96.83,27.61 147.58,27.79 118.95,0.42 237.99,0.01 356.96,0.1z"/>
  <path class="fil1" d="M510.04 1281.65l-416.57 0.14c-47.59,0.1 -91.82,-2.93 -93.06,47.57 -1.24,50.19 38.63,50.77 85.22,50.67l425.05 0.29c26.04,45.71 21.9,24.8 40.16,44.72 7.77,8.47 4.36,8.51 15.27,15.99 26.62,18.24 73.29,17.94 91.53,-6.63 -56.73,-65.85 -32.91,-154.95 17.66,-194.21 7.22,-5.61 15.08,-9.46 20.6,-15.8 -31.18,-29.82 -73.43,-39.81 -110.31,-19.04 -21.58,12.15 -60.44,46.53 -75.55,76.29z"/>
 </g>
</svg>
