<?xml version="1.0" encoding="UTF-8"?>
<!DOCTYPE svg PUBLIC "-//W3C//DTD SVG 1.1//EN" "http://www.w3.org/Graphics/SVG/1.1/DTD/svg11.dtd">
<!-- Creator: CorelDRAW 2020 (64-Bit Versión de evaluación) -->
<svg xmlns="http://www.w3.org/2000/svg" xml:space="preserve" width="108.649mm" height="25.8999mm" version="1.1" style="shape-rendering:geometricPrecision; text-rendering:geometricPrecision; image-rendering:optimizeQuality; fill-rule:evenodd; clip-rule:evenodd"
viewBox="0 0 4923.53 1173.68"
 xmlns:xlink="http://www.w3.org/1999/xlink"
 xmlns:xodm="http://www.corel.com/coreldraw/odm/2003">
 <defs>
  <style type="text/css">
   <![CDATA[
    .fil0 {fill:#FEFEFE}
    .fil1 {fill:#01A6B2}
   ]]>
  </style>
 </defs>
 <g id="Capa_x0020_1">
  <metadata id="CorelCorpID_0Corel-Layer"/>
  <path class="fil0" d="M851.23 627.03c4.68,12.43 1.5,112.62 1.63,135.35 0.29,49.91 33.68,48.21 53.93,33.9 7.58,-5.36 10.4,-12.28 15.13,-21.87 1.01,-33.11 0.39,-67.28 0.37,-100.51 -0.03,-64.6 -17.27,-47.02 97.28,-110.24 13.3,-7.34 57.01,-33.3 67.43,-35.5 0.39,27.17 0.16,54.97 -0,82.17 -0.51,84.51 -1.29,89.51 59.68,55.56 20.01,-11.14 22.49,-18.67 22.2,-47.24 -0.37,-36.89 -3.57,-103.2 0.77,-137.06l132.85 -71.56c15.44,-8.33 57.95,-28.82 65.59,-36.73 16.45,-17.03 21.76,-52.88 6.11,-76.38 -16.54,-24.85 -94.43,-63.01 -124.87,-79.81 -58.81,-32.46 -360.68,-197.71 -401.73,-211.47 -54.82,-18.36 -93.81,11.22 -149.86,42.64l-261.22 147.78c-21.41,12.23 -45.37,31.51 -27.63,62.83 16.76,29.61 49.23,10.74 71.87,-1.93 80.69,-45.14 184,-107.26 261.61,-147.42 74.16,-38.37 54.61,-47.51 141.96,-2.73 117.19,60.08 250.23,132.26 366.47,197.43 13.51,7.57 24.48,9.87 24.91,27.72 -12.94,14.07 -148.02,83.16 -174.89,97.42 -59.69,31.65 -117.35,67.05 -176.68,99.63 -52.78,28.98 -44.48,21.07 -96.67,-5.92 -64.61,-33.41 -227.89,-121.66 -280.59,-134.07 8.74,-9.97 18.35,-14.37 10.29,-35.15 -13.22,-34.07 -69.21,-29.53 -91.78,34.13 -20.32,57.32 -2.75,119.13 42.87,101.32 14.43,-5.64 19.22,-15.43 21.71,-32.92 52.42,17.16 229.36,116.7 304.03,154.06 12.3,6.15 12.3,4.05 17.22,16.55z"/>
  <path class="fil1" d="M921.91 774.41c-4.72,9.59 -7.55,16.51 -15.13,21.87 -20.25,14.31 -53.64,16.01 -53.93,-33.9 -0.13,-22.73 3.05,-122.93 -1.63,-135.35l0.64 170.97c-23.15,-9.11 -52.05,-27.3 -75.22,-39.09 -60.22,-30.64 -125.54,-68.83 -185.64,-96.4l-36.33 -13.25c-4.57,-2.4 -2.18,-0.68 -5.27,-3.74 50.76,-28.32 -42.02,-103.76 -80.92,3.1 -16.14,44.33 -7.34,115.32 43.05,97.8 19.83,-6.89 20.64,-25.45 24.09,-31.39 34.64,11.98 186.22,93.76 226.78,116.21 90.75,50.22 89.6,31.65 89.64,80.33 0.05,51.3 4.4,123.71 -0.29,172.45 -12.82,-3.53 -222.43,-124.85 -262.98,-145.45 -12.16,-6.18 -32.9,-11.6 -41.7,-18.69 7.59,-5.97 8.95,-2.85 11.75,-12.53 2.21,-7.64 0.28,-16.06 -2.54,-22.02 -14.83,-31.31 -65.47,-29.64 -90.53,33.78 -19.6,49.61 -7.21,119.92 42.91,101.17 16.46,-6.16 16.54,-15.6 21.14,-25.69 2.26,-4.96 0.79,-2.85 3.04,-5.53 27.04,10.93 53.94,28.2 79.21,42.42l233.21 131.35c33.32,18.95 66.27,14.32 75.4,-23.63 3.68,-15.29 2.09,-341.7 1.2,-364.78z"/>
  <path class="fil0" d="M2038.3 875.67c17.83,16.05 45.56,59.55 72.17,71.96 14.5,-17.77 34.37,-30.96 45.31,-45.91 -11.17,-21.99 -47.23,-39.87 -61.12,-74.16 145.35,-107.52 110.94,-434.43 -166.04,-466.31 -82.15,-9.46 -162.5,14.62 -214.45,54.74 -234.94,181.45 -70.15,534.06 221.68,492.08 48.75,-7.01 65.09,-20.81 102.46,-32.4zm-59.36 -60.08c-22.85,-39.88 -44.58,-45.32 -55.95,-67.33 7.21,-11.86 34.79,-34.55 47.67,-43.17 22.45,19.17 46.8,51.06 66.64,66.32 54.48,-35.54 88.75,-171 10.66,-264.02 -55.16,-65.71 -173.63,-97.02 -269.43,-36.03 -138.64,88.25 -107.8,295.57 36.06,346.11 69.57,24.44 98.09,16.33 164.36,-1.87z"/>
  <path class="fil0" d="M1254.93 503.2l-0.21 79.73 62.67 -33.22 0.54 278.95c0.04,64.15 8.09,49.22 -67.59,92.9l-206.07 120.07c-16.56,9.54 -40.15,17.23 -43.82,36.42 -4.27,22.34 -5.95,64.02 20.83,59.72 9.72,-1.56 265.21,-153.37 310.1,-179.26 65.8,-37.95 56.73,-47.18 56.55,-143.67 -0.22,-123.4 2.4,-264.55 -0.15,-384.59l-132.85 72.94z"/>
  <path class="fil1" d="M3845.15 587.16l-0.6 -201.16 -67.11 -1.84c-5.58,53.08 -6.02,342.16 3,385.09 36.53,173.95 289.48,184.06 346.07,23.32 61.7,-175.25 -116.31,-311.67 -250.26,-227.7l-31.1 22.29zm83.09 23.82c-141.54,36.43 -94.93,262.99 57.58,226.15 53.45,-12.91 97.62,-71.54 81.62,-142.12 -12.74,-56.21 -67.26,-102.55 -139.2,-84.03z"/>
  <path class="fil0" d="M2889.84 1033.76l68.2 0.58 0.4 -175.29c43.15,57.58 196.24,76.04 261.44,-29.63 99.06,-160.56 -50.06,-343.73 -220.89,-275.32 -43.97,17.61 -80.17,51.84 -96.8,98.03 -22.54,62.64 -12.11,296.33 -12.35,381.63zm155.69 -419.05c-141.21,41.01 -88.62,261.96 59.51,224 52.98,-13.58 95.73,-73.79 77.42,-144.23 -13.79,-53.06 -68.87,-99.53 -136.93,-79.77z"/>
  <path class="fil1" d="M4352.69 543.03c-94.54,13.64 -166.28,97.08 -151.46,208.78 30.36,228.85 389.18,196.77 357.99,-57.43 -11.53,-93.96 -98.16,-166.98 -206.53,-151.35zm-2.94 68.91c-142.33,39.78 -87.92,268.81 63.54,223.91 135.71,-40.23 86.74,-265.91 -63.54,-223.91z"/>
  <path class="fil0" d="M358.25 371.55l-292.4 0c-31.93,-0.02 -64.94,-1.63 -65.62,34.4 -0.67,35.6 27.14,35.78 60.09,35.68 98.77,-0.3 201.91,1.88 299.45,-0.05 4.39,9.08 7.52,16.59 15.46,22.44 24.48,18.02 10.89,10.85 22.04,19.44 23.69,18.27 43.57,8.19 65.59,1.25 -4.69,-14.15 -13.76,-19.48 -19.21,-36.8 -4.85,-15.41 -5.11,-35.83 -1.31,-52.09 7.92,-33.88 26.14,-48.45 47.32,-64.6 -22.24,-29.36 -67.4,-28.06 -92.11,-2.7 -19.78,20.31 -22.58,13.03 -39.3,43.01z"/>
  <path class="fil1" d="M358.78 697.82c13.13,6.53 4.91,10.34 20.17,22.2 31.35,24.37 43.12,41.89 87.83,20.44 -8.76,-18.11 -31.75,-37.5 -19.88,-86.34 8.87,-36.48 25.9,-47.62 46.1,-63.13 -15.33,-26.27 -64.51,-28.51 -88.42,-3.94 -9.91,10.18 -5.46,5.21 -17.61,12.79 -5.35,3.34 -12.42,10.25 -15.76,14.69 -12.8,16.98 1.21,13.93 -48.37,13.83 -83.8,-0.17 -167.68,-0.15 -251.48,0.05 -16.91,0.04 -43.27,-3.24 -56.44,5.72 -10.63,7.23 -20.21,25.87 -11.61,44.05 13.89,29.34 68.22,19.45 103.97,19.58 83.8,0.3 167.67,0 251.48,0.07z"/>
  <path class="fil1" d="M359.33 902.93l-293.47 0.1c-33.52,0.07 -64.69,-2.06 -65.56,33.52 -0.87,35.36 27.22,35.77 60.03,35.7l299.45 0.2c18.34,32.21 15.43,17.47 28.3,31.5 5.47,5.97 3.07,6 10.76,11.27 18.75,12.85 51.63,12.64 64.48,-4.67 -39.97,-46.39 -23.19,-109.16 12.44,-136.82 5.09,-3.95 10.63,-6.67 14.51,-11.13 -21.97,-21.01 -51.73,-28.05 -77.72,-13.41 -15.2,8.56 -42.58,32.78 -53.22,53.75z"/>
  <path class="fil0" d="M2608.65 556.04l-68.91 -1.71c-4.39,111.02 31.63,285.67 -100.75,285.35 -134.51,-0.31 -93.1,-198.71 -99.03,-285.22l-67.3 -0.12c-9.16,136.75 -25.49,352.05 166.33,352.15 194.78,0.09 176.79,-210.62 169.66,-350.45z"/>
  <path class="fil0" d="M3668.17 553.95l-68 0.66c-4.61,103.5 34.06,283.5 -100.43,284.82 -135.79,1.34 -94.41,-191.82 -99.73,-284.77l-67.5 0c-11.14,139.92 -21.86,352.48 167.17,351.98 78.17,-0.21 132.48,-44.77 155.9,-102.1 19.19,-46.97 16.69,-193.09 12.58,-250.6z"/>
  <path class="fil1" d="M4717.96 721.17c-7.13,15.83 -19.8,28.97 -29.56,42.25 -12.2,16.61 -18.91,27.36 -32.21,44.48 -17.99,23.17 -50.15,63.4 -61.81,87l69.89 0.87c22.31,-21.89 74.64,-107.87 94.79,-125.39l91.42 125.3 73.06 -0.12c-3.71,-12.26 -112.6,-157.1 -123.99,-169.02 6.48,-17.1 71.25,-100.6 90.65,-126.94 12.01,-16.32 22.82,-28.52 30.85,-44.49l-71.69 -0.64 -90.28 118.53c-21.8,-20.76 -67.73,-89.37 -86.12,-117.95l-73.1 -0.16 87.99 124.64c11.32,14.22 21.85,26.31 30.13,41.65z"/>
  <path class="fil0" d="M2719.83 895.3l64.58 0.31 1.4 -340.11 -67.78 -0.98c-3.17,41.6 -5.42,314.7 1.8,340.78z"/>
  <path class="fil0" d="M2739.74 384.22c-56.54,15.02 -39.96,103.89 22.02,90.74 57.17,-12.13 40.03,-107.22 -22.02,-90.74z"/>
 </g>
</svg>
